<svg width="15" height="26" viewBox="0 0 15 26" fill="none" xmlns="http://www.w3.org/2000/svg">
<path d="M7.50012 26C6.67957 26 5.99912 25.3569 5.99912 24.5814V3.30264C5.99912 2.52715 6.67957 1.88406 7.50012 1.88406C8.32066 1.88406 9.00112 2.52715 9.00112 3.30264V24.5814C9.00112 25.3569 8.32066 26 7.50012 26Z" fill="#231F20"/>
<path d="M13.504 8.50678C13.1237 8.50678 12.7435 8.37438 12.4433 8.09066L7.5 3.41879L2.5567 8.09066C1.97632 8.63918 1.01568 8.63918 0.43529 8.09066C-0.145097 7.54214 -0.145097 6.63425 0.43529 6.08573L6.43929 0.41139C7.01968 -0.13713 7.98032 -0.13713 8.56071 0.41139L14.5647 6.08573C15.1451 6.63425 15.1451 7.54214 14.5647 8.09066C14.2645 8.37438 13.8843 8.50678 13.504 8.50678Z" fill="#231F20"/>
</svg>
