<svg width="7" height="13" viewBox="0 0 7 13" fill="none" xmlns="http://www.w3.org/2000/svg">
<path d="M0.560625 13.0031C0.418125 13.0031 0.275625 12.9506 0.163125 12.8381C-0.054375 12.6206 -0.054375 12.2606 0.163125 12.0431L5.05312 7.15313C5.41312 6.79313 5.41312 6.20813 5.05312 5.84812L0.163125 0.958125C-0.054375 0.740625 -0.054375 0.380625 0.163125 0.163125C0.380625 -0.054375 0.740625 -0.054375 0.958125 0.163125L5.84812 5.05312C6.23063 5.43562 6.44812 5.95313 6.44812 6.50063C6.44812 7.04813 6.23812 7.56563 5.84812 7.94813L0.958125 12.8381C0.845625 12.9431 0.703125 13.0031 0.560625 13.0031Z" fill="#161616"/>
</svg>
