<svg width="13" height="17" viewBox="0 0 13 17" fill="none" xmlns="http://www.w3.org/2000/svg">
<path d="M4.5149 16.1284C4.3649 16.1284 4.2449 16.0984 4.1549 16.0609C3.8549 15.9484 3.3449 15.5809 3.3449 14.4184V9.58089H1.5899C0.584897 9.58089 0.224897 9.10839 0.0973972 8.83089C-0.0301028 8.54589 -0.142603 7.96839 0.517397 7.21089L6.1949 0.760892C6.9599 -0.109108 7.5824 -0.0491078 7.8824 0.0633922C8.1824 0.175892 8.6924 0.543392 8.6924 1.70589V6.54339H10.4474C11.4524 6.54339 11.8124 7.01589 11.9399 7.29339C12.0674 7.57839 12.1799 8.15589 11.5199 8.91339L5.8424 15.3634C5.3099 15.9709 4.8449 16.1284 4.5149 16.1284ZM7.4699 1.12089C7.4474 1.15089 7.2899 1.22589 7.0424 1.51089L1.3649 7.96089C1.1549 8.20089 1.1249 8.35089 1.1249 8.38089C1.1399 8.38839 1.2749 8.46339 1.5899 8.46339H3.9074C4.2149 8.46339 4.4699 8.71839 4.4699 9.02589V14.4259C4.4699 14.8009 4.5374 14.9659 4.5674 15.0109C4.5899 14.9809 4.7474 14.9059 4.9949 14.6209L10.6724 8.17089C10.8824 7.93089 10.9124 7.78089 10.9124 7.75089C10.8974 7.74339 10.7624 7.66839 10.4474 7.66839H8.1299C7.8224 7.66839 7.5674 7.41339 7.5674 7.10589V1.70589C7.5749 1.33089 7.4999 1.17339 7.4699 1.12089Z" fill="#231F20"/>
</svg>
